<svg viewBox="0 0 3600 116" fill="currentColor" xmlns="http://www.w3.org/2000/svg"><path d="M3600 9.46C3600 45.13 3600 80.79 3600 116.46C2400 116.46 1200 116.46 0 116.46C0 80.79 0 45.13 0 9.46C3.32 6.59 6.92 4.46 11.37 6.7C14.29 8.17 16.83 10.51 19.85 11.63C22.98 12.79 26.49 13.41 29.83 13.44C34.79 13.5 40.02 11.72 44.63 12.83C48.31 13.71 51.01 17.13 55.85 17.3C60.42 17.47 65.02 20.41 69.33 22.66C72.01 24.05 74.19 26.4 76.95 28.61C80.86 29.25 85.72 30.02 90.56 30.86C91.11 30.95 91.69 31.68 92.12 31.57C95.44 30.7 99.17 30.4 101.92 28.61C107.86 24.73 113.06 26.29 118.2 29.61C120.25 30.93 123.07 32.79 123.37 34.74C124.06 39.23 129.24 38.61 129.75 38.5C135.65 37.31 137.46 41.37 139.87 45.46C145.6 45.46 151.65 45.1 157.62 45.57C162.71 45.97 166 44.09 167.76 39.35C168.59 37.13 170.31 34.68 172.32 33.54C183.12 27.41 195.04 28.39 206.78 29.01C213.14 29.34 219.47 30.27 227.49 31.11C230.35 34.08 234.75 35.23 240.17 30.99C244.7 27.46 248.18 28.94 252.17 30.58C256.97 32.56 259.64 31.85 262.32 27.67C262.66 27.14 263.27 26.78 263.05 26.98C265.5 27.44 267.55 28.52 268.96 27.96C273.98 26 279.17 24.05 283.57 21.04C288.03 17.98 292.06 17.05 297.14 18.91C299.37 19.73 302.08 19.6 304.53 19.39C310.29 18.9 311.69 17.08 311.04 11.66C311 11.36 311.2 11.02 311.29 10.71C314.31 10.76 317.61 7.01 318.43 2.47C320.51 2.47 322.61 2.47 324.53 2.47C324.53 1.41 324.53 0.48 324.53 0C328.72 0.87 332.54 2.02 336.42 2.35C339.04 2.57 340.68 3.25 342.55 5.24C344.33 7.13 347.75 9.26 349.84 8.76C358.17 6.76 368.03 9.44 373.08 16.23C373.33 16.57 372.72 17.56 372.82 17.22C375.06 18.64 377.38 19.37 378.43 20.95C380.03 23.35 381.42 26.28 381.67 29.1C382.03 33.2 384.43 35.12 387.55 36.56C393.21 39.19 398.89 39.7 404.91 37.13C408.61 35.55 411.56 32.82 414.93 31.18C418.64 29.37 421.96 25.39 427.03 26.82C427.67 27 428.63 25.83 429.5 25.42C432.32 24.1 435.6 21.23 437.92 21.85C444.19 23.54 451.55 21.61 456.82 27.26C457.92 28.44 460.66 28.05 462.62 28.49C466.59 29.38 469.7 27.43 473.13 25.91C476.91 24.23 481.26 23.85 485.11 22.28C488.12 21.05 490.55 18.59 494.11 21.3C495.16 22.09 497.59 21.92 498.96 21.27C503.56 19.1 507.83 19.86 512.53 21.09C515.7 21.92 518.92 22.7 522.87 21.99C528.85 20.91 535.4 22.91 541.7 23.67C544.82 24.05 548.09 25.38 551.01 24.82C554.8 24.09 557.47 24.64 559.67 27.68C561.72 30.51 564.17 31.19 567.39 29.51C568.38 28.99 570.36 28.73 570.93 29.31C575.46 33.9 581.51 34.71 587.25 35.56C592.53 36.35 598.03 34.98 603.28 37.38C604.48 37.93 606.52 36.65 608.17 36.21C617.23 33.77 624.75 40.49 633.41 40.49C634.04 40.49 634.93 40.62 635.27 41.04C639.57 46.29 644.78 41.54 649.51 42.24C650.89 42.45 652.48 39.93 654.16 39.6C659.39 38.58 664.71 38.05 669.99 37.26C673.27 36.77 676.52 36.06 679.8 35.66C685.13 35 690.63 33.78 694.83 38.77C695.14 39.13 695.59 39.55 696.03 39.61C700.8 40.26 705.58 41.15 710.37 41.35C715.17 41.55 720.05 39.66 724.75 42.4C725.6 42.89 727.14 42.21 728.37 42.05C731.82 41.6 735.26 41.14 737.99 40.78C743.03 38.82 747.63 37.03 752.23 35.24C757.76 33.09 765.07 37.37 769.34 30.5C769.59 30.1 770.81 29.81 771.2 30.06C775.76 33.03 781.97 30.03 786.28 34.33C787 35.05 789.41 34.07 791.58 33.81C791.39 33.5 791.8 33.88 791.86 34.32C792.56 39.45 792.54 39.45 798.07 40.02C798.36 40.05 798.82 39.99 798.91 40.14C802.06 45.36 807.16 42.88 811.51 43.4C812.68 43.54 814.2 43.73 814.87 44.5C817.02 46.95 818.69 46.12 821.28 44.95C823.71 43.85 827.87 43.18 829.58 44.5C835.58 49.14 842.4 47.34 848.63 47.33C853.07 47.32 857.49 43.87 861.93 41.99C863.61 41.28 866.34 41.1 866.86 39.92C869.25 34.53 873.74 34.03 878.64 33.7C881.55 33.51 884.52 32.25 886.6 35.56C886.79 35.86 887.66 35.84 888.2 35.81C894.47 35.46 899.57 39.14 905.29 40.68C909.42 41.79 914.7 43.98 917.74 42.38C921.32 40.5 923.96 41.46 926.91 41.81C930.54 42.24 934.05 43.65 937.67 44.23C941.77 44.89 945.94 45.2 950.09 45.49C951.89 45.62 954.29 46.01 955.42 45.08C958.23 42.75 960.05 43.49 962.08 45.82C962.55 46.36 963.41 46.74 964.15 46.87C970.2 47.9 975.69 47.03 980.43 42.59C984.16 39.09 988.17 37.89 993.51 40.29C999.82 43.13 1006.16 47.42 1013.81 44.49C1014.23 44.33 1014.96 44.36 1015.26 44.62C1017.58 46.69 1019.15 45.31 1021.19 43.88C1025.64 40.76 1033.07 42.48 1036.31 47.01C1040.45 52.8 1045.15 53.54 1051.38 49.75C1054.27 47.99 1057.39 46.37 1060.62 45.5C1062.78 44.92 1065.34 46.07 1067.71 45.97C1072.42 45.78 1077.46 43.89 1080.4 49.84C1080.71 50.47 1082.83 50.32 1084.12 50.35C1085.63 50.38 1087.15 50.07 1088.65 50.15C1091.78 50.31 1095.33 51.71 1097.94 50.67C1103.45 48.47 1108.77 45.44 1113.58 41.94C1116.83 39.58 1127.99 36.9 1131.69 38.7C1135.45 40.53 1139.08 43.2 1143.7 40.6C1144.86 39.95 1146.66 40.53 1148.14 40.35C1148.95 40.25 1149.71 39.76 1150.49 39.42C1151.76 38.86 1153.18 37.61 1154.27 37.85C1157.6 38.59 1160.62 39.19 1163.65 36.77C1164.24 36.3 1166.35 37.16 1167.36 37.92C1169.85 39.8 1177.11 40.36 1179.45 38.21C1182.81 35.12 1186.26 33.99 1190.52 36.2C1191.18 36.54 1192.28 36.61 1192.93 36.3C1197.29 34.21 1201.62 32.06 1205.88 29.79C1212.42 26.3 1217.57 27.1 1222.55 32.5C1225.36 35.56 1228.47 36.94 1232.44 34.46C1233.17 34 1234.83 33.66 1235.06 33.98C1237.52 37.42 1240.8 35.25 1243.68 35.37C1248.3 35.56 1253.12 36.3 1257.48 35.25C1260.49 34.52 1262.42 33.37 1265.21 35.87C1267.41 37.84 1271.74 38.06 1273.02 40.28C1274.64 43.09 1276.29 43.82 1278.96 43.69C1283.24 43.49 1287.3 43.79 1290.46 47.25C1290.8 47.62 1292.27 47.62 1292.29 47.53C1293.1 44.56 1294.29 45.62 1295.72 47.06C1296.05 47.39 1297.01 47.39 1297.54 47.19C1302.1 45.45 1306.5 43.14 1311.2 42C1314.86 41.11 1319.05 38.42 1322.69 42.49C1322.93 42.76 1323.61 42.8 1324.03 42.71C1328.51 41.68 1332.94 40.4 1337.46 39.6C1345.16 38.23 1352.9 37.21 1358.5 43.85C1363.67 38.37 1369.29 33.74 1376.37 31.72C1379.04 30.96 1382.8 31.55 1385.22 32.97C1390.33 35.95 1395.35 38.73 1401.31 39.49C1402.41 39.63 1403.95 39.68 1404.48 40.38C1408.15 45.16 1413.1 44.4 1417.91 43.54C1420.77 43.03 1423.43 41.26 1426.29 40.88C1428.53 40.59 1431.41 40.88 1433.17 42.11C1439.41 46.5 1439.68 46.69 1445.02 42.39C1446.4 42.8 1447.29 43.19 1448.23 43.33C1450.6 43.67 1452.99 44.13 1455.37 44.13C1459.74 44.14 1463.86 44.71 1467.53 47.36C1467.99 47.69 1469.13 47.27 1469.88 47C1473.39 45.73 1476.82 44.27 1480.36 43.11C1486.36 41.15 1492.3 38.69 1498.47 37.71C1503.84 36.86 1510.01 34.95 1514.58 40.48C1514.83 40.78 1515.68 40.7 1516.23 40.63C1519.05 40.28 1521.86 39.9 1524.67 39.48C1530.02 38.66 1535.9 38.9 1538.18 32.19C1538.45 31.4 1540.09 31.1 1541.06 30.51C1545.82 27.62 1551.74 28.67 1554.71 31.33C1562.32 38.13 1574.12 36.74 1580.36 45.49C1580.64 45.88 1581.57 45.89 1582.2 45.93C1588.65 46.35 1595.19 44.65 1601.58 47.46C1603.34 48.23 1606.08 46.4 1608.28 46.62C1613.14 47.1 1617.79 47.78 1622.63 45.79C1625.32 44.69 1629.3 43.9 1631.51 45.12C1635.29 47.2 1637.63 44.53 1640.61 44.18C1643.2 43.87 1645.83 43.43 1648.42 43.55C1652.11 43.73 1655.78 44.42 1659.47 44.75C1659.9 44.79 1660.38 43.9 1660.89 43.52C1668.83 37.59 1676.81 40.51 1678.43 49.96C1680.38 49.96 1682.36 49.96 1684.08 49.96C1686.57 48.13 1689.31 46.63 1691.41 44.49C1696.21 39.59 1703.24 38.24 1709.44 40.85C1711.52 41.73 1714.79 42.15 1716.49 41.11C1722 37.75 1727.23 37.5 1732.99 40.08C1733.95 40.51 1735.59 39.58 1736.87 39.15C1740.5 37.95 1744.03 36.04 1747.73 35.65C1750.97 35.32 1754.56 37.6 1757.69 37.04C1761.18 36.42 1762.63 37.54 1764.51 39.94C1765.73 41.51 1767.82 42.6 1769.74 43.36C1771.95 44.24 1774.41 44.46 1776.72 45.11C1777.76 45.4 1778.84 46.63 1779.67 46.44C1783.9 45.44 1788.05 44.12 1792.48 42.84C1792.48 42.81 1792.56 43.58 1792.56 43.52C1794.49 43.94 1796.29 43.91 1797.59 44.71C1800.96 46.78 1806 45.68 1808.02 42.2C1808.57 41.26 1809.43 39.75 1810.11 39.76C1816.1 39.93 1822.49 37.47 1827.92 41.73C1833.82 46.37 1839.55 43.25 1845.38 41.8C1848.82 40.95 1852.53 39.02 1855.68 39.67C1861.88 40.96 1868.58 41.96 1873.06 47.42C1876.76 42.54 1885.48 41.87 1892.57 45.85C1893.66 41.24 1898.1 41.98 1901.15 40.59C1902.88 39.8 1905.4 40.12 1906.63 38.95C1910.99 34.79 1915.57 34.45 1921.08 36.2C1922.83 36.76 1926.24 35.82 1927.22 34.41C1930.13 30.2 1936.19 29.26 1939.57 33.33C1942.59 29.07 1945.75 30.06 1949.11 33C1951.18 34.81 1953.43 37.54 1955.75 37.71C1961.43 38.13 1967.21 37.41 1972.94 36.97C1979.5 36.47 1985.83 33.4 1992.69 36.05C1995.2 37.02 1998.5 37.04 2001.13 36.33C2005.37 35.19 2008.04 35.89 2010.8 39.55C2012.99 42.45 2015.8 45.54 2020.74 44C2022.8 43.36 2026.27 43.74 2027.64 45.12C2030.95 48.44 2033.26 46.67 2036.13 44.94C2037.4 44.17 2039.12 44.1 2040.64 43.8C2042.55 43.42 2044.58 43.4 2046.38 42.74C2048.65 41.9 2050.74 40.57 2052.38 39.73C2055.45 41.26 2058.07 42.57 2060.01 43.54C2063.38 42.23 2066.1 40.34 2068.84 40.31C2072.04 40.28 2075.38 36.55 2078.97 41.1C2080.3 42.78 2086.03 44.28 2088.47 40.36C2091.63 35.29 2096.03 34.62 2101.23 34.89C2102.13 34.94 2103.09 33.77 2104.11 33.12C2106.63 35.81 2108.78 37.73 2113.11 37.87C2118.01 38.03 2122.81 41.04 2127.66 42.82C2128.97 43.3 2130.26 44.18 2131.57 44.21C2134.76 44.28 2137.97 44.01 2141.16 43.79C2142.33 43.71 2144.01 43.79 2144.54 43.09C2146.55 40.45 2148.41 40.45 2151.2 42.01C2153.71 43.42 2156.69 43.99 2159.04 44.78C2162.2 41.13 2164.88 37.32 2170.54 37.37C2172.64 37.39 2174.74 36.08 2176.86 35.41C2178.54 34.88 2180.24 34.03 2181.94 34C2185.86 33.92 2190.05 36.69 2193.54 32.66C2193.64 32.54 2194.13 32.76 2194.42 32.81C2194.32 33.65 2194.22 34.47 2194.25 34.25C2198.75 35.73 2202.75 36.72 2206.43 38.41C2208.18 39.21 2210.68 41.52 2210.51 42.82C2209.95 46.94 2212.08 46.64 2214.76 46.55C2218.47 46.42 2222.35 45.82 2225.87 46.66C2229.42 47.51 2231.6 46.73 2234.59 44.84C2238.98 42.08 2244.16 39.11 2249.07 38.99C2254.76 38.85 2260.68 38.19 2265.55 36.6C2270.46 35 2274.73 31.2 2280.5 31.94C2282.3 32.17 2284.05 32.75 2285.85 33.01C2290.15 33.65 2294.66 36.57 2298.73 33.83C2301.64 31.87 2304.11 32.84 2305.17 34.49C2308.32 39.41 2313.02 37.98 2317.34 38.54C2319.66 38.84 2321.9 39.7 2324.17 40.31C2328.96 40.94 2333.93 40.67 2338.91 40.54C2339.57 40.52 2340.21 41.45 2340.94 41.62C2345.13 42.64 2349.3 44.12 2353.54 44.34C2356.65 44.51 2360.11 43.51 2362.91 42.05C2365.25 40.83 2376.25 37.69 2378.71 38.76C2379.31 39.02 2379.96 39.33 2380.37 39.81C2382.12 41.86 2383.79 43.98 2385.68 46.32C2391.22 38.96 2398.03 36.7 2406.62 40.43C2408.41 41.21 2410.73 40.89 2412.79 40.79C2413.18 40.77 2413.5 39.35 2413.27 39.86C2416.87 38.57 2420.16 38.24 2422.15 36.47C2425 33.92 2427.87 34.87 2430.83 34.81C2431.88 34.79 2432.95 35.05 2433.99 34.94C2437.75 34.54 2441.48 33.85 2445.25 33.7C2446.4 33.65 2447.73 34.81 2448.76 35.67C2450.2 36.87 2451.22 38.73 2452.8 39.55C2455.02 40.69 2457.61 41.12 2459.94 41.83C2464.41 39.92 2468.71 37.55 2474.24 40.01C2477.75 41.57 2481.27 41.67 2484.61 37.91C2486.1 36.23 2490.99 35.86 2493.35 36.98C2498.44 39.41 2502.88 43.18 2508 46.68C2510.37 44.72 2513.25 43.99 2516.21 47.7C2517.89 49.81 2528.06 48.85 2530.38 47.4C2535.31 44.3 2540.33 41.19 2545.67 38.91C2550.97 36.65 2556.67 35.3 2562.26 33.8C2563.93 33.35 2566.3 33.07 2567.54 33.91C2571.1 36.32 2574.24 39.34 2576.96 41.63C2589.69 41.75 2601.97 39.07 2614.25 42.72C2617.34 37.44 2620.45 32.68 2627.13 32.46C2634.63 32.21 2642.13 31.61 2649.62 31.6C2651.78 31.6 2653.9 33.57 2656.11 33.76C2659.93 34.09 2660.39 37.41 2662.31 39.49C2668.57 46.29 2676.13 41.83 2682.71 40.69C2689.33 39.55 2695.47 36.14 2702.08 40.4C2702.88 40.91 2703.91 41.18 2704.87 41.3C2707.84 41.64 2710.54 42.07 2711.96 45.41C2712.27 46.13 2715.25 46.61 2716.27 45.99C2720.77 43.26 2725.03 44.07 2729.84 45.13C2733.4 45.92 2737.46 44.85 2741.22 44.16C2744.12 43.63 2746.83 42.12 2749.73 41.54C2753.71 40.75 2757.79 40.49 2761.81 39.88C2763.25 39.66 2764.62 38.79 2766.05 38.72C2769.77 38.54 2773.51 38.46 2777.22 38.68C2779.98 38.85 2782.7 39.55 2786.57 40.2C2789.01 35.9 2793.84 34.03 2800.15 36.38C2800.72 36.59 2801.85 36.2 2802.3 35.7C2806.83 30.66 2812.67 32.57 2818.12 32.75C2819.1 32.78 2820.52 33.87 2820.92 34.82C2822.51 38.57 2825.45 38.24 2828.52 37.72C2831.13 42.19 2831.04 41.98 2835.94 39.92C2837.85 39.12 2840.31 39.2 2842.45 39.44C2848.47 40.13 2854.45 41.21 2860.47 41.93C2862.04 42.12 2864.42 42.13 2865.17 41.21C2867.49 38.37 2869.73 39.88 2872.23 40.38C2873.73 40.68 2875.73 40.67 2876.91 39.89C2880.9 37.28 2884.5 34.07 2888.51 31.5C2890.33 30.34 2893.17 29.08 2894.84 29.72C2899.67 31.56 2903.31 30.53 2907.41 27.69C2913.34 23.59 2922.42 24.01 2926.98 28.1C2931.18 31.87 2935.03 36.11 2941.47 32.34C2942.22 31.9 2943.71 32.53 2944.79 32.88C2949 34.25 2953.09 36.3 2957.41 36.99C2963.86 38.02 2969.63 36 2973.5 30.61C2978.1 32.22 2982.23 33.95 2986.53 35.03C2987.93 35.39 2989.75 34.06 2991.39 33.55C2993.58 32.87 2995.76 32.13 2997.99 31.6C3002.74 30.47 3008.26 32.68 3012.16 27.67C3013.64 25.77 3016.35 24.77 3018.59 23.51C3022.73 21.17 3026.81 18.56 3031.97 19.86C3032.44 19.98 3033.07 19.52 3033.61 19.31C3037.86 17.69 3041.99 15.56 3046.38 14.57C3051.71 13.36 3057.4 13.69 3062.68 12.32C3070.87 10.21 3077.28 12.28 3083.45 17.81C3085.5 19.65 3088.33 23.44 3092.41 20.21C3092.8 19.9 3093.95 20.35 3094.65 20.67C3103.42 24.6 3112.67 24.97 3122.05 24.5C3122.95 24.45 3123.86 24.65 3124.77 24.73C3125.07 25.18 3125.37 25.64 3125.67 26.09C3124.52 26.28 3123.37 26.48 3122.16 26.68C3124.47 28.07 3125.54 28.95 3126.78 29.42C3128.92 30.24 3131.56 31.89 3133.28 31.26C3137.45 29.73 3142.5 28 3144.85 24.68C3148.44 19.62 3152.24 19.59 3157.02 21.01C3160.34 22 3163.98 24.85 3166.77 24.13C3172.94 22.53 3175.63 26.98 3179.93 29.66C3181.28 27.73 3182.64 25.79 3183.7 24.27C3185.76 24.73 3187.33 25.33 3188.92 25.4C3192.56 25.58 3196.72 23.38 3199.21 28.2C3199.54 28.83 3201.76 29.3 3202.33 28.85C3205.25 26.57 3208.33 24.28 3210.57 21.38C3213.5 17.59 3223.53 13.76 3227.34 16.49C3232.03 19.84 3236.32 15.49 3240.86 16.91C3243.85 17.84 3247.32 17.12 3250.51 17.59C3253.23 17.99 3255.86 19.04 3259.51 20.08C3260.93 24.49 3263.98 28.59 3271.01 27.77C3272.41 27.61 3274.2 29.4 3275.55 30.59C3277.08 31.94 3278.15 34.68 3279.73 34.95C3284.22 35.72 3288.55 35.29 3291.88 30.99C3297.79 23.35 3308.65 21.75 3317.07 26.36C3319.44 27.66 3322.47 27.81 3325.21 28.36C3327.17 28.75 3329.16 28.94 3331.14 29.21C3336.17 28.97 3339.53 19.02 3346.27 27.66C3347.43 26.01 3348.24 23.72 3349.21 23.65C3354.19 23.31 3359.27 23.11 3364.2 23.73C3367.22 24.11 3369.97 26.3 3372.99 27.18C3374.1 27.5 3375.6 26.34 3376.95 25.99C3378.59 25.57 3380.58 24.53 3381.86 25.08C3384.97 26.42 3387.76 28.52 3390.47 30.18C3391.77 29.72 3393.54 28.4 3394.96 28.7C3401.24 30.05 3407.62 31.36 3413.59 33.67C3419.87 36.1 3426.34 33.6 3430.38 28.2C3433.04 24.65 3436.85 21.52 3442.02 20.1C3447 18.73 3453.83 22.25 3457.01 15.26C3457.14 14.97 3457.94 14.77 3458.37 14.84C3462.97 15.63 3468.89 14.97 3471.88 17.62C3479.3 24.18 3486.19 17.68 3493.15 17.85C3496.28 17.93 3499.91 17.06 3503.28 17.95C3506.29 18.74 3509.11 20.46 3512.14 20.85C3513.94 21.08 3517.63 19.52 3517.62 18.82C3517.52 13.82 3522.08 12.19 3524.21 8.92C3525.2 7.4 3527.42 5.63 3528.97 5.72C3537.03 6.22 3545.04 7.56 3553.09 8.07C3558.64 8.42 3563.69 12.82 3570.03 8.9C3572.55 7.34 3577.44 9.59 3581.24 10.1C3581.19 10.29 3581.15 10.48 3581.1 10.68C3587.43 10.29 3593.71 9.88 3600 9.46Z"></path></svg>