<svg width="45" height="29" viewBox="0 0 45 29" fill="none" xmlns="http://www.w3.org/2000/svg">
  <path d="M44.0536 12.4535C42.3731 8.4093 41.7083 9.64658 42.6316 11.8626C43.1487 13.1183 43.2226 13.4323 42.9826 13.3399C39.0122 11.7518 30.9792 14.2817 26.104 18.6953L23.7771 20.8005C23.6663 18.9353 23.6109 17.8643 23.5186 17.2733C23.4447 16.7563 22.6138 16.6085 22.5214 17.181C22.4106 17.8643 22.4291 19.0831 22.4291 21.0221L21.8566 20.3758C19.0127 17.1441 10.7027 16.2392 2.85432 18.326C1.54318 18.6768 1.54314 19.0277 2.81735 14.4295C4.53476 8.16922 5.03333 5.12221 5.36573 3.9034C5.51346 3.3494 11.5521 3.23862 13.8236 3.73722C15.9472 4.19889 20.6562 6.32256 21.3395 7.09816C21.5611 7.3567 21.7458 8.42777 22.0413 11.1424C22.4845 15.2051 22.5399 14.9281 22.8908 15.0758C23.5186 15.3159 23.2047 11.7518 22.9646 7.26437L25.3838 5.52849C31.1085 1.42887 36.0945 1.81667 36.9809 1.65047L38.1628 3.44173C40.7851 7.39362 41.1727 8.87098 41.5236 7.98458C41.6529 7.65217 38.3473 0.948721 37.8303 0.487052C36.8515 -0.380886 28.6893 -0.67635 23.1123 4.80828C21.6534 6.24869 21.8197 6.19329 21.0441 5.60236C16.0396 1.77974 4.83023 0.37626 4.20236 3.49714C3.81456 5.39922 1.15531 13.026 0.195035 18.049C-0.045033 19.3416 -0.0634637 19.674 0.139671 20.0803C0.379739 20.5604 0.509042 20.5974 1.28465 20.4496C1.61705 20.3942 1.67241 20.5235 1.80168 21.8531C1.94941 23.2566 2.31871 24.1061 2.68805 23.8845C2.94658 23.7367 2.87279 24.0691 2.57732 24.4569C1.87558 25.3803 2.65111 27.2454 3.70372 27.1715C4.16539 27.1346 4.29467 27.2269 4.46088 27.6886C4.73788 28.4457 5.08876 28.5196 5.86437 27.9841C6.6769 27.4301 8.13578 26.5252 10.5734 25.9527C13.011 25.3803 20.6747 25.9527 21.4318 26.3036C21.8935 26.5252 22.1336 26.5621 22.2259 26.4144C22.2998 26.3036 22.9276 26.1559 23.6478 26.1005C26.067 25.8973 29.9266 25.4541 31.6625 25.1587C34.2478 24.7155 39.1046 24.8632 40.7112 25.4357C42.5025 26.0635 43.0565 25.4172 41.8562 24.106C41.4314 23.6444 41.4128 23.589 41.7452 23.6813C44.3491 24.3646 44.8293 23.4597 43.2965 20.7266C42.6133 19.5078 42.6132 19.5632 43.5919 19.5632C44.7553 19.5632 44.7 19.12 43.3335 17.0518C42.0962 15.1866 42.0962 15.1681 43.5735 15.6667C45.3463 16.2577 45.4201 15.7406 44.0536 12.4535ZM9.70542 23.2566C7.47094 23.4597 5.40268 24.5493 5.19955 24.6231C4.88561 24.7155 4.68246 24.5123 4.81173 24.0322C4.88559 23.7367 4.97793 23.3858 4.99639 23.2381C5.14413 22.2778 11.3859 21.336 14.3406 21.8346C17.2399 22.3148 17.6646 22.5179 20.1576 23.4043C15.9103 23.1089 12.0876 23.035 9.70542 23.2566ZM21.9858 22.2409C12.6786 19.6002 9.02222 19.5078 4.05466 21.7423C3.38986 22.0562 2.81733 22.2778 2.79887 22.2409C2.76193 22.1855 2.65113 21.1514 2.52186 20.0988C7.00929 19.0092 10.5918 18.012 14.9869 18.5845C16.2981 18.7507 18.0709 19.4155 19.419 20.228C21.7273 21.6315 22.7984 22.481 21.9858 22.2409ZM27.3966 19.8587C32.5119 15.4451 36.1129 14.0971 40.2309 15.0758C40.6557 15.1681 42.3362 17.2733 42.1516 17.458C42.1146 17.4949 41.7268 17.4396 41.2836 17.3288C37.8303 16.5716 35.8729 16.8671 31.2378 18.88C30.019 19.4155 28.7446 19.951 28.4122 20.0803C27.0457 20.6158 23.7217 23.035 27.3966 19.8587ZM41.0435 21.096C38.8091 20.6712 36.2422 20.7451 33.9338 21.2806C32.198 21.6869 26.9165 22.7764 26.7503 22.6287C26.658 22.5548 29.2803 21.2252 30.5914 20.5235C33.2506 19.1015 36.4453 18.6214 40.2309 19.0646C41.0435 19.157 41.1543 19.2493 41.8376 20.2096C42.7425 21.4838 42.7794 21.4284 41.0435 21.096Z" fill="white"/>
</svg>
